name rise35.5848peak51.9257fall54.8793.mot
datacolumns 19
datarows 15
range 16.79494300000000 16.81826800000000
endheader
time	ground_force1_vx	ground_force1_vy	ground_force1_vz	ground_force1_px	ground_force1_py	ground_force1_pz	ground_force2_vx	ground_force2_vy	ground_force2_vz	ground_force2_px	ground_force2_py	ground_force2_pz	ground_torque1_x	ground_torque1_y	ground_torque1_z	ground_torque2_x	ground_torque2_y	ground_torque2_z	
16.79494300000000	10.55003600000000	726.43341299999997	49.37274900000000	0.18880400000000	0.00000000000000	0.12745700000000	0.00000000000000	0.00000000000000	0.00000000000000	0.00000000000000	0.00000000000000	0.00000000000000	0.00000000000000	17.34848700000000	0.00000000000000	0.00000000000000	0.00000000000000	0.00000000000000	
16.79659800000000	10.19067700000000	727.59946900000000	49.31296000000000	0.18785300000000	0.00000000000000	0.12732700000000	0.00000000000000	0.00000000000000	0.00000000000000	0.00000000000000	0.00000000000000	0.00000000000000	0.00000000000000	17.37331500000000	0.00000000000000	0.00000000000000	0.00000000000000	0.00000000000000	
16.79826500000000	9.82570300000000	728.77221399999996	49.25373900000000	0.18690000000000	0.00000000000000	0.12719600000000	0.00000000000000	0.00000000000000	0.00000000000000	0.00000000000000	0.00000000000000	0.00000000000000	0.00000000000000	17.40000300000000	0.00000000000000	0.00000000000000	0.00000000000000	0.00000000000000	
16.79994200000000	9.45518100000000	729.94996600000002	49.19504400000000	0.18594300000000	0.00000000000000	0.12706500000000	0.00000000000000	0.00000000000000	0.00000000000000	0.00000000000000	0.00000000000000	0.00000000000000	0.00000000000000	17.42853400000000	0.00000000000000	0.00000000000000	0.00000000000000	0.00000000000000	
16.80160200000000	9.07919200000000	731.13113499999997	49.13684100000000	0.18498500000000	0.00000000000000	0.12693300000000	0.00000000000000	0.00000000000000	0.00000000000000	0.00000000000000	0.00000000000000	0.00000000000000	0.00000000000000	17.45888900000000	0.00000000000000	0.00000000000000	0.00000000000000	0.00000000000000	
16.80326800000000	8.69784100000000	732.31422099999997	49.07910000000000	0.18402600000000	0.00000000000000	0.12680100000000	0.00000000000000	0.00000000000000	0.00000000000000	0.00000000000000	0.00000000000000	0.00000000000000	0.00000000000000	17.49104200000000	0.00000000000000	0.00000000000000	0.00000000000000	0.00000000000000	
16.80494700000000	8.31124600000000	733.49782000000005	49.02179300000000	0.18306600000000	0.00000000000000	0.12666800000000	0.00000000000000	0.00000000000000	0.00000000000000	0.00000000000000	0.00000000000000	0.00000000000000	0.00000000000000	17.52496600000000	0.00000000000000	0.00000000000000	0.00000000000000	0.00000000000000	
16.80659600000000	7.91954500000000	734.68061999999998	48.96490200000000	0.18210800000000	0.00000000000000	0.12653600000000	0.00000000000000	0.00000000000000	0.00000000000000	0.00000000000000	0.00000000000000	0.00000000000000	0.00000000000000	17.56063000000000	0.00000000000000	0.00000000000000	0.00000000000000	0.00000000000000	
16.80826200000000	7.52289000000000	735.86140300000000	48.90841100000000	0.18115200000000	0.00000000000000	0.12640300000000	0.00000000000000	0.00000000000000	0.00000000000000	0.00000000000000	0.00000000000000	0.00000000000000	0.00000000000000	17.59799700000000	0.00000000000000	0.00000000000000	0.00000000000000	0.00000000000000	
16.80994300000000	7.12145000000000	737.03904399999999	48.85230900000000	0.18019800000000	0.00000000000000	0.12627000000000	0.00000000000000	0.00000000000000	0.00000000000000	0.00000000000000	0.00000000000000	0.00000000000000	0.00000000000000	17.63702600000000	0.00000000000000	0.00000000000000	0.00000000000000	0.00000000000000	
16.81160600000000	6.71540600000000	738.21250999999995	48.79659300000000	0.17924700000000	0.00000000000000	0.12613700000000	0.00000000000000	0.00000000000000	0.00000000000000	0.00000000000000	0.00000000000000	0.00000000000000	0.00000000000000	17.67767200000000	0.00000000000000	0.00000000000000	0.00000000000000	0.00000000000000	
16.81326400000000	6.30495300000000	739.38085899999999	48.74126300000000	0.17830000000000	0.00000000000000	0.12600400000000	0.00000000000000	0.00000000000000	0.00000000000000	0.00000000000000	0.00000000000000	0.00000000000000	0.00000000000000	17.71988600000000	0.00000000000000	0.00000000000000	0.00000000000000	0.00000000000000	
16.81494200000000	5.89029700000000	740.54323599999998	48.68632500000000	0.17735900000000	0.00000000000000	0.12587100000000	0.00000000000000	0.00000000000000	0.00000000000000	0.00000000000000	0.00000000000000	0.00000000000000	0.00000000000000	17.76361300000000	0.00000000000000	0.00000000000000	0.00000000000000	0.00000000000000	
16.81659400000000	5.47165800000000	741.69887500000004	48.63179200000000	0.17642200000000	0.00000000000000	0.12573800000000	0.00000000000000	0.00000000000000	0.00000000000000	0.00000000000000	0.00000000000000	0.00000000000000	0.00000000000000	17.80879400000000	0.00000000000000	0.00000000000000	0.00000000000000	0.00000000000000	
16.81826800000000	5.04926000000000	742.84709199999998	48.57768200000000	0.17549200000000	0.00000000000000	0.12560500000000	0.00000000000000	0.00000000000000	0.00000000000000	0.00000000000000	0.00000000000000	0.00000000000000	0.00000000000000	17.85536600000000	0.00000000000000	0.00000000000000	0.00000000000000	0.00000000000000	
